<svg width="18" height="18" viewBox="0 0 18 18" fill="none" xmlns="http://www.w3.org/2000/svg">
<path d="M4.50078 4.09999H5.00078V3.59999V2.69999C5.00078 2.5939 5.04292 2.49216 5.11794 2.41715C5.19295 2.34213 5.29469 2.29999 5.40078 2.29999C5.50687 2.29999 5.60861 2.34213 5.68362 2.41715C5.75864 2.49216 5.80078 2.5939 5.80078 2.69999V3.59999V4.09999H6.30078H11.7008H12.2008V3.59999V2.69999C12.2008 2.5939 12.2429 2.49216 12.3179 2.41715C12.393 2.34213 12.4947 2.29999 12.6008 2.29999C12.7069 2.29999 12.8086 2.34213 12.8836 2.41714C12.9586 2.49216 13.0008 2.5939 13.0008 2.69999V3.59999V4.09999H13.5008H14.4008C14.7456 4.09999 15.0762 4.23695 15.32 4.48075C15.5638 4.72455 15.7008 5.05521 15.7008 5.39999V14.4C15.7008 14.7448 15.5638 15.0754 15.32 15.3192C15.0762 15.563 14.7456 15.7 14.4008 15.7H3.60078C3.256 15.7 2.92534 15.563 2.68154 15.3192C2.43774 15.0754 2.30078 14.7448 2.30078 14.4V5.39999C2.30078 5.05521 2.43775 4.72455 2.68154 4.48075C2.92534 4.23695 3.256 4.09999 3.60078 4.09999H4.50078ZM5.40078 5.79999C5.02948 5.79999 4.67338 5.94749 4.41083 6.21004C4.14828 6.47259 4.00078 6.82868 4.00078 7.19999C4.00078 7.57129 4.14828 7.92739 4.41083 8.18994C4.67338 8.45249 5.02948 8.59999 5.40078 8.59999H12.6008C12.9721 8.59999 13.3282 8.45249 13.5907 8.18994C13.8533 7.92739 14.0008 7.57129 14.0008 7.19999C14.0008 6.82868 13.8533 6.47259 13.5907 6.21004C13.3282 5.94749 12.9721 5.79999 12.6008 5.79999H5.40078Z" fill="#606060" stroke="#606060"/>
</svg>
