<svg width="40" height="41" viewBox="0 0 40 41" fill="none" xmlns="http://www.w3.org/2000/svg">
<path d="M4.5 19.5V19.4999C4.49977 17.8945 5.09367 16.3458 6.16728 15.1522C7.24089 13.9586 8.71824 13.2045 10.3147 13.0352L10.9051 12.9726L10.743 12.4015C10.4692 11.4371 10.3914 10.4277 10.5143 9.43279C10.6371 8.43789 10.958 7.47768 11.458 6.60886C11.9581 5.74003 12.6272 4.98021 13.4257 4.37425C14.2243 3.76829 15.1362 3.32848 16.1076 3.08078C17.0789 2.83308 18.0901 2.78252 19.0813 2.93209C20.0725 3.08165 21.0238 3.4283 21.8788 3.95158C22.7338 4.47486 23.4754 5.16415 24.0596 5.97875C24.6438 6.79336 25.0589 7.71677 25.2804 8.69445L25.3817 9.14186L25.8362 9.07933C26.9902 8.92055 28.1646 9.00068 29.2864 9.31476C30.4082 9.62884 31.4535 10.1702 32.3573 10.9051C33.2612 11.6401 34.0043 12.553 34.5406 13.5871C35.0768 14.6213 35.3948 15.7547 35.4747 16.9169C35.5546 18.0791 35.3948 19.2453 35.0052 20.3431C34.6155 21.441 34.0043 22.447 33.2096 23.2988C32.4149 24.1505 31.4535 24.8298 30.3853 25.2945C29.317 25.7592 28.1647 25.9993 26.9997 26H22.5V16.5C22.5 15.837 22.2366 15.2011 21.7678 14.7322C21.2989 14.2634 20.663 14 20 14C19.337 14 18.7011 14.2634 18.2322 14.7322C17.7634 15.2011 17.5 15.837 17.5 16.5V26H11C9.27609 26 7.62279 25.3152 6.40381 24.0962C5.18482 22.8772 4.5 21.2239 4.5 19.5ZM17.6464 32.0256L18.5 32.8791V31.672V27H21.5V31.672V32.8791L22.3536 32.0256L24.9363 29.4428C25.2189 29.1714 25.5965 29.0212 25.9885 29.0246C26.3818 29.0281 26.758 29.1858 27.0361 29.4639C27.3142 29.742 27.472 30.1182 27.4754 30.5115C27.4788 30.9035 27.3286 31.2811 27.0572 31.5637L21.0605 37.5604C21.0605 37.5604 21.0605 37.5604 21.0604 37.5604C20.7792 37.8416 20.3977 37.9996 20 37.9996C19.6023 37.9996 19.2208 37.8416 18.9396 37.5604C18.9395 37.5604 18.9395 37.5604 18.9395 37.5604L12.9428 31.5637C12.6714 31.2811 12.5212 30.9035 12.5246 30.5115C12.5281 30.1182 12.6858 29.742 12.9639 29.4639C13.242 29.1858 13.6182 29.0281 14.0115 29.0246C14.4035 29.0212 14.7811 29.1714 15.0637 29.4428L17.6464 32.0256Z" fill="#B3B3B3" stroke="#B3B3B3"/>
</svg>
